# xmcd
#
# Track frame offsets: 
#        150
#        20697
#        39899
#        60576
#        80640
#        106947
#        123869
#        141449
#        158671
#        177773
#        203913
#        219097
#        243034
#        261386
#        280325
#        297330
#        314777
#        335704
#
# Disc length: 4721 seconds
#
# Revision: 1
# Processed by: cddbd v1.5.2PL0 Copyright (c) Steve Scherf et al.
# Submitted via: ExactAudioCopy v0.99pb5
#
DISCID=0b126f12
DTITLE=Patricia Kaas - Bestseller
DYEAR=1900
DGENRE=blues
TTITLE0=Mon chercher d'or
TTITLE1=Mon mec a moi
TTITLE2=La cle
TTITLE3=D'Allemagne
TTITLE4=Ma liberte contre la tienne
TTITLE5=Quand Jimmy Oit
TTITLE6=Venus des Abribus
TTITLE7=Madenoiselle chante le blues
TTITLE8=Le mot de passe
TTITLE9=It's man's world
TTITLE10=Jojo
TTITLE11=Ceux qui n'ont rien
TTITLE12=Elle voulalt jouer cabaret
TTITLE13=Bassie
TTITLE14=Les hommes qui passent
TTITLE15=Si tu reves
TTITLE16=Quand je t'oublie
TTITLE17=La liberte
EXTD=
EXTT0=
EXTT1=
EXTT2=
EXTT3=
EXTT4=
EXTT5=
EXTT6=
EXTT7=
EXTT8=
EXTT9=
EXTT10=
EXTT11=
EXTT12=
EXTT13=
EXTT14=
EXTT15=
EXTT16=
EXTT17=
PLAYORDER=
